<svg xmlns="http://www.w3.org/2000/svg" width="720" height="420" viewBox="0 0 720 420">
  <rect width="100%" height="100%" fill="white"/>
  <text x="360.0" y="28" text-anchor="middle" font-size="18" font-family="Arial" font-weight="normal">Lambda vs. Mode Share</text>
  <line x1="60" y1="360" x2="660" y2="360" stroke="#333"/>
  <line x1="60" y1="60" x2="60" y2="360" stroke="#333"/>
  <text x="360.0" y="404" text-anchor="middle" font-size="13" font-family="Arial" font-weight="normal">Lambda</text>
  <text x="18" y="210.0" text-anchor="middle" font-size="13" font-family="Arial" font-weight="normal" transform="rotate(-90 18 210.0)">Mode share (%)</text>
  <polyline points="60.0,60.0 72.0,60.0 120.0,60.0 180.0,60.0 300.0,360.0 660.0,360.0" fill="none" stroke="#2ca02c" stroke-width="2"/>
  <polyline points="60.0,360.0 72.0,360.0 120.0,360.0 180.0,360.0 300.0,60.0 660.0,60.0" fill="none" stroke="#d62728" stroke-width="2"/>
  <text x="540" y="72" font-size="13" font-weight="normal" fill="#2ca02c">Road share</text>
  <text x="540" y="92" font-size="13" font-weight="normal" fill="#d62728">Rail share</text>
  <text x="60.0" y="378" text-anchor="middle" font-size="11" font-weight="normal">0</text>
<text x="72.0" y="378" text-anchor="middle" font-size="11" font-weight="normal">0.1</text>
<text x="120.0" y="378" text-anchor="middle" font-size="11" font-weight="normal">0.5</text>
<text x="180.0" y="378" text-anchor="middle" font-size="11" font-weight="normal">1</text>
<text x="300.0" y="378" text-anchor="middle" font-size="11" font-weight="normal">2</text>
<text x="660.0" y="378" text-anchor="middle" font-size="11" font-weight="normal">5</text>
</svg>
