<svg xmlns="http://www.w3.org/2000/svg" width="720" height="420" viewBox="0 0 720 420">
  <rect width="100%" height="100%" fill="white"/>
  <text x="360.0" y="28" text-anchor="middle" font-size="18" font-family="Arial">Cost-Emission Sensitivity</text>
  <line x1="60" y1="360" x2="660" y2="360" stroke="#333"/>
  <line x1="60" y1="60" x2="60" y2="360" stroke="#333"/>
  <text x="360.0" y="404" text-anchor="middle" font-size="13" font-family="Arial">Total cost (EUR)</text>
  <text x="18" y="210.0" text-anchor="middle" font-size="13" font-family="Arial" transform="rotate(-90 18 210.0)">Total emissions (kg CO2)</text>
  <polyline points="360.0,210.0 360.0,210.0 360.0,210.0 360.0,210.0 360.0,210.0 360.0,210.0" fill="none" stroke="#1f77b4" stroke-width="2"/>
  <circle cx="360.0" cy="210.0" r="5" fill="#1f77b4" /><text x="368.0" y="202.0" font-size="12">lambda=0</text>
<circle cx="360.0" cy="210.0" r="5" fill="#1f77b4" /><text x="368.0" y="202.0" font-size="12">lambda=0.1</text>
<circle cx="360.0" cy="210.0" r="5" fill="#1f77b4" /><text x="368.0" y="202.0" font-size="12">lambda=0.5</text>
<circle cx="360.0" cy="210.0" r="5" fill="#1f77b4" /><text x="368.0" y="202.0" font-size="12">lambda=1</text>
<circle cx="360.0" cy="210.0" r="5" fill="#1f77b4" /><text x="368.0" y="202.0" font-size="12">lambda=2</text>
<circle cx="360.0" cy="210.0" r="5" fill="#1f77b4" /><text x="368.0" y="202.0" font-size="12">lambda=5</text>
</svg>
