<svg width="283" height="58" xmlns="http://www.w3.org/2000/svg" xmlns:xlink="http://www.w3.org/1999/xlink" xml:space="preserve" overflow="hidden"><defs><clipPath id="clip0"><rect x="0" y="0" width="283" height="58"/></clipPath></defs><g clip-path="url(#clip0)"><path d="M62.3503 39.5454 54.9923 39.5454C55.147 52.1844 64.2866 58.0003 76.3696 58.0003 86.2838 58.0003 95.8107 53.1146 95.8107 41.7941 95.8107 30.0853 86.3617 28.0692 77.1442 25.4332 69.863 23.3392 64.4413 21.1683 64.4413 15.508 64.4413 8.76185 69.5536 6.20271 75.673 6.20271 82.9531 6.20271 86.4385 9.69209 87.4456 16.6708L94.8815 16.6708C94.0291 5.58289 86.7489-0.000499052 75.673-0.000499052 65.681-0.000499052 56.8507 5.35033 57.0833 16.051 57.3159 26.5191 66.6102 29.233 75.7498 31.9468 82.7206 34.0398 88.4527 35.2026 88.4527 42.0266 88.4527 48.7728 82.8763 51.7971 76.3696 51.7971 68.3139 51.7971 62.6597 47.8426 62.3503 39.5454"/><path d="M126.229 25.4634 126.229 7.61733 137.615 7.61733C144.044 7.61733 147.916 9.82813 147.916 16.0313 147.916 22.2346 144.044 25.4634 137.615 25.4634L126.229 25.4634ZM126.229 50.3821 126.229 31.6646 139.784 31.6646C145.902 31.6646 150.24 35.0292 150.24 40.9221 150.24 46.8927 145.902 50.3821 139.784 50.3821L126.229 50.3821ZM118.866 56.5853 138.544 56.5853C150.318 56.5853 157.598 51.2355 157.598 40.9221 157.598 33.7108 152.874 29.4459 146.522 28.3609L146.522 28.2831C152.022 25.8018 155.274 21.8473 155.274 16.0313 155.274 6.72702 148.381 1.41411 139.009 1.41411L118.866 1.41411 118.866 56.5853Z"/><path d="M0.0362811 1.41461 0.0362811 56.5848 7.3943 56.5848 7.3943 31.6681 34.0397 31.6681 34.0397 56.5848 41.3977 56.5848 41.3977 25.4639 7.3943 25.4639 7.3943 1.41461Z"/><path d="M41.3977 1.41541 48.7427 1.41541 48.7427 25.4637 41.3977 25.4637Z"/><path d="M165.939 25.4637 173.284 25.4637 173.284 56.5856 165.939 56.5856Z"/><path d="M173.284 1.41541 180.629 1.41541 180.629 25.4637 173.284 25.4637Z"/><path d="M102.88 1.41541 110.225 1.41541 110.225 25.4637 102.88 25.4637Z"/><path d="M239.519 52.9818 240.407 52.9818C240.307 51.844 239.419 51.306 238.41 51.306 237.502 51.306 236.505 51.854 236.505 52.8221 236.505 53.6206 237.193 54.0897 237.961 54.2794L238.681 54.459C239.17 54.5798 239.599 54.7295 239.599 55.1687 239.599 55.7675 238.99 55.9472 238.48 55.9472 237.782 55.9472 237.372 55.6877 237.253 55.0289L236.355 55.0289C236.445 56.3055 237.582 56.7048 238.451 56.7048 239.35 56.7048 240.496 56.2067 240.496 55.1088 240.496 54.2494 239.709 53.8801 238.93 53.6905L238.251 53.5208C237.802 53.411 237.402 53.1815 237.402 52.7822 237.402 52.3431 237.891 52.0636 238.38 52.0636 238.9 52.0636 239.459 52.3131 239.519 52.9818M234.523 55.1387 234.523 52.1634 235.511 52.1634 235.511 51.4258 234.523 51.4258 234.523 49.8188 233.645 50.2181 233.645 51.4258 232.877 51.4258 232.877 52.1634 233.645 52.1634 233.645 55.1986C233.645 55.9971 234.095 56.585 235.092 56.585L235.541 56.585 235.541 55.8474 235.182 55.8474C234.782 55.8474 234.523 55.5979 234.523 55.1387M230.583 51.4258 229.686 51.4258 229.686 56.585 230.583 56.585 230.583 54.1496C230.583 52.6525 231.192 52.383 231.791 52.2931 231.921 52.2732 232.08 52.2632 232.12 52.2632L232.12 51.4058C231.342 51.4058 230.843 51.7053 230.583 52.4628L230.583 51.4258ZM224.195 53.7214 225.383 50.3069 225.413 50.3069 226.61 53.7214 224.195 53.7214ZM223.127 56.585 223.916 54.499 226.889 54.499 227.668 56.585 228.646 56.585 225.991 49.4595 224.804 49.4595 222.149 56.585 223.127 56.585ZM214.553 53.9899C214.553 52.872 215.132 52.0636 216.191 52.0636 217.308 52.0636 217.827 52.9818 217.827 53.9899 217.827 55.009 217.308 55.9372 216.191 55.9372 215.102 55.9372 214.553 55.1088 214.553 53.9899M216.011 51.306C214.553 51.306 213.655 52.393 213.655 53.9899 213.655 55.5879 214.553 56.7048 216.011 56.7048 216.949 56.7048 217.598 56.0869 217.788 55.5579L217.798 55.5579 217.798 56.585 218.695 56.585 218.695 49.4595 217.798 49.4595 217.798 52.4728 217.788 52.4728C217.598 51.9338 216.949 51.306 216.011 51.306M208.168 56.585 209.065 56.585 209.065 54.0498C209.065 52.7024 209.734 52.0636 210.493 52.0636 211.192 52.0636 211.581 52.4229 211.581 53.3312L211.581 56.585 212.479 56.585 212.479 53.2413C212.479 52.1933 211.971 51.306 210.613 51.306 209.814 51.306 209.335 51.8041 209.065 52.393L209.065 51.4258 208.168 51.4258 208.168 56.585ZM203.163 55.1787C203.163 54.6596 203.612 54.4391 204.362 54.3093 205.48 54.1097 205.7 53.8103 205.799 53.4709L205.809 54.1895C205.809 55.4681 205.031 55.9771 204.242 55.9771 203.612 55.9771 203.163 55.6677 203.163 55.1787M202.526 52.9818 203.423 52.9818C203.543 52.4229 204.013 52.0536 204.642 52.0536 205.38 52.0536 205.789 52.363 205.789 52.7922 205.789 53.2214 205.57 53.411 204.891 53.5308 204.113 53.6705 202.276 53.7204 202.276 55.1787 202.276 55.9173 202.845 56.7048 204.083 56.7048 205.23 56.7048 205.66 56.037 205.779 55.6378L205.789 55.6378 205.789 55.8364C205.789 56.1259 205.789 56.3355 205.809 56.585L206.766 56.585C206.727 56.3355 206.687 55.9262 206.687 55.537L206.687 53.3212C206.687 52.5227 206.507 51.296 204.612 51.296 203.263 51.296 202.635 52.2333 202.526 52.9818"/><path d="M281.987 42.2021 282.874 42.2021C282.774 41.0643 281.887 40.5263 280.879 40.5263 279.969 40.5263 278.972 41.0743 278.972 42.0424 278.972 42.8419 279.66 43.311 280.429 43.5007L281.148 43.6803C281.637 43.8001 282.066 43.9498 282.066 44.389 282.066 44.9878 281.458 45.1675 280.949 45.1675 280.249 45.1675 279.84 44.908 279.72 44.2492L278.823 44.2492C278.912 45.5268 280.049 45.925 280.919 45.925 281.817 45.925 282.964 45.427 282.964 44.3291 282.964 43.4707 282.176 43.1014 281.398 42.9118L280.719 42.7411C280.269 42.6313 279.87 42.4017 279.87 42.0025 279.87 41.5633 280.359 41.2839 280.849 41.2839 281.368 41.2839 281.927 41.5334 281.987 42.2021M273.982 42.7521C274.102 41.8628 274.691 41.2639 275.62 41.2639 276.538 41.2639 277.037 41.8528 277.117 42.7521L273.982 42.7521ZM277.944 44.2692 277.067 44.2692C276.887 44.908 276.308 45.1775 275.62 45.1775 274.701 45.1775 274.042 44.5487 273.972 43.4697L278.024 43.4697 278.024 43.31C278.004 41.9835 277.436 40.5263 275.62 40.5263 274.161 40.5263 273.105 41.6432 273.105 43.2002 273.105 44.8181 274.112 45.925 275.64 45.925 276.787 45.925 277.656 45.3671 277.944 44.2692M272.315 44.2293 271.407 44.2293C271.177 44.8381 270.748 45.1775 269.999 45.1775 268.951 45.1775 268.283 44.3291 268.283 43.2312 268.283 42.1223 268.951 41.2639 269.999 41.2639 270.838 41.2639 271.187 41.723 271.377 42.1921L272.275 42.1921C272.055 41.2539 271.347 40.5263 270.029 40.5263 268.422 40.5263 267.386 41.6731 267.386 43.2312 267.386 44.7882 268.422 45.925 270.029 45.925 271.277 45.925 272.026 45.3072 272.315 44.2293M262.016 45.8053 262.912 45.8053 262.912 43.2701C262.912 41.9226 263.582 41.2839 264.34 41.2839 265.039 41.2839 265.429 41.6432 265.429 42.5515L265.429 45.8053 266.325 45.8053 266.325 42.4616C266.325 41.4136 265.817 40.5263 264.46 40.5263 263.661 40.5263 263.181 41.0244 262.912 41.6132L262.912 40.6461 262.016 40.6461 262.016 45.8053ZM256.838 42.7521C256.958 41.8628 257.548 41.2639 258.476 41.2639 259.395 41.2639 259.895 41.8528 259.974 42.7521L256.838 42.7521ZM260.802 44.2692 259.924 44.2692C259.745 44.908 259.165 45.1775 258.476 45.1775 257.558 45.1775 256.898 44.5487 256.828 43.4697L260.881 43.4697 260.881 43.31C260.861 41.9835 260.293 40.5263 258.476 40.5263 257.018 40.5263 255.962 41.6432 255.962 43.2002 255.962 44.8181 256.968 45.925 258.496 45.925 259.645 45.925 260.512 45.3671 260.802 44.2692M253.932 45.8053 254.829 45.8053 254.829 40.6461 253.932 40.6461 253.932 45.8053ZM254.908 38.6798 253.951 38.6798 253.951 39.6769 254.908 39.6769 254.908 38.6798ZM252.812 44.2293 251.904 44.2293C251.674 44.8381 251.245 45.1775 250.496 45.1775 249.448 45.1775 248.78 44.3291 248.78 43.2312 248.78 42.1223 249.448 41.2639 250.496 41.2639 251.335 41.2639 251.684 41.723 251.874 42.1921L252.772 42.1921C252.553 41.2539 251.844 40.5263 250.526 40.5263 248.919 40.5263 247.883 41.6731 247.883 43.2312 247.883 44.7882 248.919 45.925 250.526 45.925 251.774 45.925 252.523 45.3072 252.812 44.2293M242.835 43.6005 241.888 43.6005C241.908 45.2274 243.084 45.9749 244.642 45.9749 245.92 45.9749 247.147 45.3471 247.147 43.8899 247.147 42.3828 245.93 42.1233 244.741 41.7839 243.803 41.5134 243.104 41.234 243.104 40.5053 243.104 39.637 243.763 39.3076 244.552 39.3076 245.491 39.3076 245.94 39.7568 246.07 40.6551L247.027 40.6551C246.917 39.2278 245.98 38.5101 244.552 38.5101 243.264 38.5101 242.127 39.1978 242.157 40.5752 242.187 41.9236 243.384 42.273 244.562 42.6223 245.461 42.8918 246.2 43.0415 246.2 43.9199 246.2 44.7882 245.481 45.1775 244.642 45.1775 243.604 45.1775 242.875 44.6684 242.835 43.6005M233.433 43.2112C233.433 42.0923 234.012 41.2839 235.07 41.2839 236.189 41.2839 236.708 42.2021 236.708 43.2112 236.708 44.2293 236.189 45.1575 235.07 45.1575 233.982 45.1575 233.433 44.3291 233.433 43.2112M234.89 40.5263C233.433 40.5263 232.536 41.6132 232.536 43.2112 232.536 44.8082 233.433 45.925 234.89 45.925 235.829 45.925 236.478 45.3072 236.668 44.7782L236.678 44.7782 236.678 45.8053 237.575 45.8053 237.575 38.6798 236.678 38.6798 236.678 41.6931 236.668 41.6931C236.478 41.1541 235.829 40.5263 234.89 40.5263M227.534 42.7521C227.654 41.8628 228.243 41.2639 229.171 41.2639 230.09 41.2639 230.589 41.8528 230.669 42.7521L227.534 42.7521ZM231.497 44.2692 230.619 44.2692C230.44 44.908 229.861 45.1775 229.171 45.1775 228.253 45.1775 227.594 44.5487 227.524 43.4697L231.576 43.4697 231.576 43.31C231.556 41.9835 230.988 40.5263 229.171 40.5263 227.714 40.5263 226.657 41.6432 226.657 43.2002 226.657 44.8181 227.664 45.925 229.191 45.925 230.34 45.925 231.207 45.3671 231.497 44.2692M224.527 45.8053 225.424 45.8053 225.424 40.6461 224.527 40.6461 224.527 45.8053ZM225.504 38.6798 224.547 38.6798 224.547 39.6769 225.504 39.6769 225.504 38.6798ZM222.138 45.8053 223.036 45.8053 223.036 38.6798 222.138 38.6798 222.138 45.8053ZM216.738 43.2112C216.738 42.2021 217.257 41.2839 218.375 41.2839 219.433 41.2839 220.012 42.0923 220.012 43.2112 220.012 44.3291 219.463 45.1575 218.375 45.1575 217.257 45.1575 216.738 44.2293 216.738 43.2112M218.555 40.5263C217.616 40.5263 216.967 41.1541 216.777 41.6931L216.768 41.6931 216.768 40.6461 215.87 40.6461 215.87 47.8015 216.768 47.8015 216.768 44.7782 216.777 44.7782C216.967 45.3072 217.616 45.925 218.555 45.925 220.012 45.925 220.91 44.8082 220.91 43.2112 220.91 41.6132 220.012 40.5263 218.555 40.5263M210.48 43.2112C210.48 42.2021 210.999 41.2839 212.118 41.2839 213.176 41.2839 213.755 42.0923 213.755 43.2112 213.755 44.3291 213.206 45.1575 212.118 45.1575 210.999 45.1575 210.48 44.2293 210.48 43.2112M212.298 40.5263C211.359 40.5263 210.71 41.1541 210.52 41.6931L210.51 41.6931 210.51 40.6461 209.613 40.6461 209.613 47.8015 210.51 47.8015 210.51 44.7782 210.52 44.7782C210.71 45.3072 211.359 45.925 212.298 45.925 213.755 45.925 214.653 44.8082 214.653 43.2112 214.653 41.6132 213.755 40.5263 212.298 40.5263M204.123 42.9417 205.31 39.5272 205.34 39.5272 206.537 42.9417 204.123 42.9417ZM203.055 45.8053 203.843 43.7192 206.816 43.7192 207.595 45.8053 208.573 45.8053 205.918 38.6798 204.731 38.6798 202.076 45.8053 203.055 45.8053Z"/><path d="M257.096 29.2869 257.096 29.8668 256.387 29.8668 256.387 30.6044 257.096 30.6044 257.096 35.026 257.973 35.026 257.973 30.6044 258.842 30.6044 258.842 29.8668 257.973 29.8668 257.973 29.3268C257.973 28.7878 258.243 28.6581 258.632 28.6581L258.961 28.6581 258.961 27.9005 258.402 27.9005C257.485 27.9005 257.096 28.5682 257.096 29.2869M251.418 32.4508C251.418 31.3829 252.097 30.5045 253.105 30.5045 254.114 30.5045 254.793 31.3829 254.793 32.4508 254.793 33.5098 254.114 34.3882 253.105 34.3882 252.097 34.3882 251.418 33.5098 251.418 32.4508M253.105 35.1457C254.673 35.1457 255.69 33.969 255.69 32.4508 255.69 30.9337 254.673 29.747 253.105 29.747 251.537 29.747 250.521 30.9337 250.521 32.4508 250.521 33.969 251.537 35.1457 253.105 35.1457M243.414 29.8668 242.457 29.8668C243.175 31.6334 243.903 33.4 244.622 35.1667L244.442 35.6158C244.292 35.9851 244.212 36.2646 243.713 36.2646L243.145 36.2646 243.145 37.0222 243.843 37.0222C244.542 37.0222 244.921 36.6429 245.151 36.0251L247.485 29.8668 246.528 29.8668 245.061 34.1386 245.051 34.1386 243.414 29.8668ZM240.681 33.5797 240.681 30.6044 241.669 30.6044 241.669 29.8668 240.681 29.8668 240.681 28.2598 239.804 28.659 239.804 29.8668 239.035 29.8668 239.035 30.6044 239.804 30.6044 239.804 33.6396C239.804 34.4381 240.252 35.026 241.25 35.026L241.699 35.026 241.699 34.2884 241.34 34.2884C240.941 34.2884 240.681 34.0388 240.681 33.5797M237.039 35.026 237.936 35.026 237.936 29.8668 237.039 29.8668 237.039 35.026ZM238.016 27.9005 237.059 27.9005 237.059 28.8976 238.016 28.8976 238.016 27.9005ZM234.903 31.4228 235.79 31.4228C235.691 30.285 234.803 29.747 233.794 29.747 232.886 29.747 231.889 30.2949 231.889 31.2631 231.889 32.0616 232.576 32.5307 233.345 32.7203L234.064 32.901C234.554 33.0208 234.983 33.1705 234.983 33.6096 234.983 34.2085 234.374 34.3882 233.864 34.3882 233.165 34.3882 232.756 34.1287 232.636 33.4699L231.739 33.4699C231.829 34.7465 232.966 35.1457 233.834 35.1457 234.733 35.1457 235.88 34.6477 235.88 33.5498 235.88 32.6904 235.093 32.3211 234.314 32.1315L233.634 31.9618C233.185 31.852 232.786 31.6224 232.786 31.2232 232.786 30.784 233.275 30.5045 233.764 30.5045 234.284 30.5045 234.843 30.7541 234.903 31.4228M229.522 29.8668 228.625 29.8668 228.625 35.026 229.522 35.026 229.522 32.5906C229.522 31.0934 230.131 30.8239 230.73 30.7341 230.86 30.7141 231.019 30.7042 231.059 30.7042L231.059 29.8468C230.281 29.8468 229.782 30.1462 229.522 30.9038L229.522 29.8668ZM223.349 31.9728C223.469 31.0834 224.058 30.4846 224.986 30.4846 225.905 30.4846 226.404 31.0735 226.484 31.9728L223.349 31.9728ZM227.311 33.4889 226.434 33.4889C226.254 34.1287 225.676 34.3981 224.986 34.3981 224.068 34.3981 223.409 33.7693 223.339 32.6904L227.391 32.6904 227.391 32.5307C227.371 31.2032 226.803 29.747 224.986 29.747 223.529 29.747 222.472 30.8639 222.472 32.4209 222.472 34.0388 223.479 35.1457 225.006 35.1457 226.155 35.1457 227.022 34.5878 227.311 33.4889M218.121 29.8668 217.143 29.8668C217.792 31.5835 218.43 33.3092 219.079 35.026L220.066 35.026C220.715 33.3092 221.354 31.5835 222.003 29.8668L221.024 29.8668 219.588 34.1187 219.578 34.1187C219.089 32.7004 218.61 31.2841 218.121 29.8668M215.256 35.026 216.154 35.026 216.154 29.8668 215.256 29.8668 215.256 35.026ZM216.234 27.9005 215.276 27.9005 215.276 28.8976 216.234 28.8976 216.234 27.9005ZM209.472 35.026 210.37 35.026 210.37 32.4908C210.37 31.1433 211.038 30.5045 211.798 30.5045 212.497 30.5045 212.886 30.8639 212.886 31.7721L212.886 35.026 213.783 35.026 213.783 31.6823C213.783 30.6343 213.275 29.747 211.918 29.747 211.118 29.747 210.639 30.245 210.37 30.8339L210.37 29.8668 209.472 29.8668 209.472 35.026ZM207.984 32.4918 207.984 27.9005 207.037 27.9005 207.037 32.4918C207.037 33.5198 206.498 34.3981 205.3 34.3981 204.102 34.3981 203.563 33.5198 203.563 32.4918L203.563 27.9005 202.615 27.9005 202.615 32.4918C202.615 33.9889 203.463 35.1956 205.3 35.1956 207.137 35.1956 207.984 33.9889 207.984 32.4918"/><path d="M237.114 16.7256C237.114 15.6067 237.693 14.7983 238.752 14.7983 239.87 14.7983 240.389 15.7165 240.389 16.7256 240.389 17.7437 239.87 18.6719 238.752 18.6719 237.663 18.6719 237.114 17.8435 237.114 16.7256M238.572 14.0407C237.114 14.0407 236.217 15.1277 236.217 16.7256 236.217 18.3226 237.114 19.4395 238.572 19.4395 239.51 19.4395 240.159 18.8216 240.349 18.2926L240.359 18.2926 240.359 19.3197 241.256 19.3197 241.256 12.1942 240.359 12.1942 240.359 15.2075 240.349 15.2075C240.159 14.6685 239.51 14.0407 238.572 14.0407M234.092 19.3197 234.989 19.3197 234.989 12.1942 234.092 12.1942 234.092 19.3197ZM228.806 16.2665C228.925 15.3772 229.515 14.7783 230.444 14.7783 231.362 14.7783 231.862 15.3672 231.942 16.2665L228.806 16.2665ZM232.768 17.7836 231.892 17.7836C231.711 18.4224 231.132 18.6919 230.444 18.6919 229.525 18.6919 228.866 18.0631 228.796 16.9841L232.848 16.9841 232.848 16.8244C232.828 15.498 232.26 14.0407 230.444 14.0407 228.985 14.0407 227.929 15.1576 227.929 16.7146 227.929 18.3326 228.935 19.4395 230.463 19.4395 231.611 19.4395 232.48 18.8815 232.768 17.7836M225.529 13.5816 225.529 14.1605 224.82 14.1605 224.82 14.8981 225.529 14.8981 225.529 19.3197 226.405 19.3197 226.405 14.8981 227.274 14.8981 227.274 14.1605 226.405 14.1605 226.405 13.6215C226.405 13.0815 226.675 12.9518 227.064 12.9518L227.393 12.9518 227.393 12.1942 226.834 12.1942C225.917 12.1942 225.529 12.862 225.529 13.5816M220.029 16.2665C220.149 15.3772 220.739 14.7783 221.667 14.7783 222.585 14.7783 223.085 15.3672 223.165 16.2665L220.029 16.2665ZM223.993 17.7836 223.115 17.7836C222.936 18.4224 222.356 18.6919 221.667 18.6919 220.749 18.6919 220.089 18.0631 220.019 16.9841L224.072 16.9841 224.072 16.8244C224.052 15.498 223.484 14.0407 221.667 14.0407 220.209 14.0407 219.153 15.1576 219.153 16.7146 219.153 18.3326 220.159 19.4395 221.687 19.4395 222.836 19.4395 223.703 18.8815 223.993 17.7836M217.157 19.3197 218.054 19.3197 218.054 12.1942 217.157 12.1942 217.157 19.3197ZM211.871 16.2665C211.991 15.3772 212.579 14.7783 213.508 14.7783 214.427 14.7783 214.926 15.3672 215.006 16.2665L211.871 16.2665ZM215.833 17.7836 214.956 17.7836C214.776 18.4224 214.197 18.6919 213.508 18.6919 212.589 18.6919 211.931 18.0631 211.861 16.9841L215.913 16.9841 215.913 16.8244C215.893 15.498 215.324 14.0407 213.508 14.0407 212.05 14.0407 210.993 15.1576 210.993 16.7146 210.993 18.3326 212.001 19.4395 213.528 19.4395 214.676 19.4395 215.544 18.8815 215.833 17.7836M208.864 19.3197 209.761 19.3197 209.761 14.1605 208.864 14.1605 208.864 19.3197ZM209.841 12.1942 208.883 12.1942 208.883 13.1913 209.841 13.1913 209.841 12.1942ZM203.603 15.3083 203.603 12.9917 205.07 12.9917C205.899 12.9917 206.398 13.3011 206.398 14.1006 206.398 14.8991 205.899 15.3083 205.07 15.3083L203.603 15.3083ZM203.603 18.5222 203.603 16.1058 205.35 16.1058C206.139 16.1058 206.698 16.545 206.698 17.3045 206.698 18.0731 206.139 18.5222 205.349 18.5222L203.603 18.5222ZM202.655 19.3197 205.189 19.3197C206.708 19.3197 207.645 18.632 207.645 17.3045 207.645 16.3753 207.037 15.8263 206.219 15.6876L206.219 15.6776C206.926 15.3582 207.345 14.8492 207.345 14.1006 207.345 12.9019 206.458 12.1942 205.249 12.1942L202.655 12.1942 202.655 19.3197Z"/><path d="M252.482 5.48727C252.601 4.59796 253.19 3.9991 254.12 3.9991 255.038 3.9991 255.537 4.58798 255.617 5.48727L252.482 5.48727ZM256.444 7.00339 255.567 7.00339C255.387 7.64318 254.808 7.91267 254.12 7.91267 253.2 7.91267 252.542 7.28386 252.472 6.20491L256.524 6.20491 256.524 6.04521C256.504 4.71774 255.936 3.2615 254.12 3.2615 252.661 3.2615 251.604 4.37838 251.604 5.93542 251.604 7.55335 252.611 8.66024 254.139 8.66024 255.287 8.66024 256.156 8.10231 256.444 7.00339M249.494 8.54047 250.392 8.54047 250.392 1.41501 249.494 1.41501 249.494 8.54047ZM243.682 6.72492C243.682 7.77293 244.19 8.66024 245.548 8.66024 246.346 8.66024 246.825 8.16219 247.096 7.57331L247.096 8.54047 247.992 8.54047 247.992 3.38128 247.096 3.38128 247.096 5.91546C247.096 7.2639 246.426 7.90268 245.668 7.90268 244.968 7.90268 244.579 7.54337 244.579 6.63509L244.579 3.38128 243.682 3.38128 243.682 6.72492ZM237.949 8.54047 238.846 8.54047 238.846 6.00529C238.846 4.65785 239.515 4.01906 240.274 4.01906 240.973 4.01906 241.363 4.37838 241.363 5.28666L241.363 8.54047 242.259 8.54047 242.259 5.19683C242.259 4.14882 241.751 3.2615 240.394 3.2615 239.595 3.2615 239.115 3.75956 238.846 4.34844L238.846 1.41501 237.949 1.41501 237.949 8.54047ZM236.755 6.96447 235.846 6.96447C235.617 7.57331 235.188 7.91267 234.439 7.91267 233.391 7.91267 232.722 7.06428 232.722 5.96537 232.722 4.85747 233.391 3.9991 234.439 3.9991 235.277 3.9991 235.627 4.45823 235.816 4.92734L236.715 4.92734C236.495 3.98912 235.786 3.2615 234.469 3.2615 232.862 3.2615 231.826 4.40832 231.826 5.96537 231.826 7.52341 232.862 8.66024 234.469 8.66024 235.717 8.66024 236.465 8.04242 236.755 6.96447M229.976 4.93732 230.864 4.93732C230.764 3.79948 229.877 3.2615 228.868 3.2615 227.959 3.2615 226.962 3.80946 226.962 4.77762 226.962 5.57611 227.65 6.04521 228.418 6.23485L229.137 6.41551C229.626 6.53528 230.056 6.685 230.056 7.12416 230.056 7.72303 229.446 7.90268 228.937 7.90268 228.239 7.90268 227.829 7.64318 227.709 6.98443L226.812 6.98443C226.902 8.261 228.039 8.66024 228.907 8.66024 229.807 8.66024 230.953 8.16219 230.953 7.06428 230.953 6.20491 230.166 5.83561 229.387 5.64597L228.708 5.47629C228.259 5.3665 227.858 5.13694 227.858 4.7377 227.858 4.29853 228.348 4.01906 228.838 4.01906 229.357 4.01906 229.917 4.26859 229.976 4.93732M221.36 8.54047 222.256 8.54047 222.256 6.00529C222.256 4.65785 222.926 4.01906 223.684 4.01906 224.384 4.01906 224.773 4.37838 224.773 5.28666L224.773 8.54047 225.67 8.54047 225.67 5.19683C225.67 4.14882 225.162 3.2615 223.804 3.2615 223.006 3.2615 222.527 3.75956 222.256 4.34844L222.256 1.41501 221.36 1.41501 221.36 8.54047ZM220.166 6.96447 219.257 6.96447C219.028 7.57331 218.599 7.91267 217.85 7.91267 216.802 7.91267 216.134 7.06428 216.134 5.96537 216.134 4.85747 216.802 3.9991 217.85 3.9991 218.689 3.9991 219.037 4.45823 219.228 4.92734L220.126 4.92734C219.907 3.98912 219.198 3.2615 217.88 3.2615 216.273 3.2615 215.236 4.40832 215.236 5.96537 215.236 7.52341 216.273 8.66024 217.88 8.66024 219.128 8.66024 219.877 8.04242 220.166 6.96447M210.048 5.96537C210.048 4.8974 210.727 4.01906 211.735 4.01906 212.744 4.01906 213.423 4.8974 213.423 5.96537 213.423 7.02435 212.744 7.90268 211.735 7.90268 210.727 7.90268 210.048 7.02435 210.048 5.96537M211.735 8.66024C213.303 8.66024 214.32 7.48348 214.32 5.96537 214.32 4.44825 213.303 3.2615 211.735 3.2615 210.168 3.2615 209.151 4.44825 209.151 5.96537 209.151 7.48348 210.168 8.66024 211.735 8.66024M207.037 1.41501 207.037 4.56902 203.603 4.56902 203.603 1.41501 202.655 1.41501 202.655 8.54047 203.603 8.54047 203.603 5.3665 207.037 5.3665 207.037 8.54047 207.984 8.54047 207.984 1.41501 207.037 1.41501Z"/></g></svg>