<svg width="1280" height="720" xmlns="http://www.w3.org/2000/svg" xmlns:xlink="http://www.w3.org/1999/xlink" overflow="hidden"><g><rect x="0" y="0" width="1280" height="720" fill="#FFFFFF"/><path d="M640 464.5C640 449.864 651.864 438 666.5 438 681.136 438 693 449.864 693 464.5 693 479.136 681.136 491 666.5 491 651.864 491 640 479.136 640 464.5Z" fill="#FFC000" fill-rule="evenodd"/><text font-family="Aptos,Aptos_MSFontService,sans-serif" font-weight="400" font-size="48" transform="translate(666.359 475)">pet</text><path d="M1066 106.5C1066 91.8645 1077.86 80 1092.5 80 1107.14 80 1119 91.8645 1119 106.5 1119 121.136 1107.14 133 1092.5 133 1077.86 133 1066 121.136 1066 106.5Z" fill="#FFC000" fill-rule="evenodd"/><text font-family="Aptos,Aptos_MSFontService,sans-serif" font-weight="400" font-size="48" transform="translate(1092.81 117)">meow</text><path d="M224 140.5C224 125.864 235.641 114 250 114 264.359 114 276 125.864 276 140.5 276 155.136 264.359 167 250 167 235.641 167 224 155.136 224 140.5Z" fill="#FFC000" fill-rule="evenodd"/><text font-family="Aptos,Aptos_MSFontService,sans-serif" font-weight="400" font-size="48" transform="translate(249.932 151)">dog</text><path d="M774 190.5C774 175.864 785.864 164 800.5 164 815.136 164 827 175.864 827 190.5 827 205.136 815.136 217 800.5 217 785.864 217 774 205.136 774 190.5Z" fill="#FFC000" fill-rule="evenodd"/><text font-family="Aptos,Aptos_MSFontService,sans-serif" font-weight="400" font-size="48" transform="translate(800.719 201)">sleeping</text><path d="M131 483C131 468.641 142.864 457 157.5 457 172.136 457 184 468.641 184 483 184 497.359 172.136 509 157.5 509 142.864 509 131 497.359 131 483Z" fill="#FFC000" fill-rule="evenodd"/><text font-family="Aptos,Aptos_MSFontService,sans-serif" font-weight="400" font-size="48" transform="translate(157.519 494)">pig</text><path d="M1024 610.5C1024 595.864 1035.86 584 1050.5 584 1065.14 584 1077 595.864 1077 610.5 1077 625.136 1065.14 637 1050.5 637 1035.86 637 1024 625.136 1024 610.5Z" fill="#FFC000" fill-rule="evenodd"/><text font-family="Aptos,Aptos_MSFontService,sans-serif" font-weight="400" font-size="48" transform="translate(1050.75 621)">chicken</text><path d="M427 214C427 199.641 438.864 188 453.5 188 468.136 188 480 199.641 480 214 480 228.359 468.136 240 453.5 240 438.864 240 427 228.359 427 214Z" fill="#FF9900" fill-rule="evenodd"/><text font-family="Aptos,Aptos_MSFontService,sans-serif" font-weight="400" font-size="48" transform="translate(453.599 225)">cats</text><path d="M280 587.5C280 572.864 291.864 561 306.5 561 321.136 561 333 572.864 333 587.5 333 602.136 321.136 614 306.5 614 291.864 614 280 602.136 280 587.5Z" fill="#FFC000" fill-rule="evenodd"/><text font-family="Aptos,Aptos_MSFontService,sans-serif" font-weight="400" font-size="48" transform="translate(306.213 598)">snake</text><path d="M536 41.5C536 26.8645 547.864 15 562.5 15 577.136 15 589 26.8645 589 41.5 589 56.1355 577.136 68 562.5 68 547.864 68 536 56.1355 536 41.5Z" fill="#FFC000" fill-rule="evenodd"/><text font-family="Aptos,Aptos_MSFontService,sans-serif" font-weight="400" font-size="48" transform="translate(562.466 52)">white</text><path d="M395 248C395 233.641 406.864 222 421.5 222 436.136 222 448 233.641 448 248 448 262.359 436.136 274 421.5 274 406.864 274 395 262.359 395 248Z" fill="#FF3300" fill-rule="evenodd"/><text font-family="Aptos,Aptos_MSFontService,sans-serif" font-weight="400" font-size="48" transform="translate(421.424 259)">cat</text><path d="M224 312.5C224 297.864 235.641 286 250 286 264.359 286 276 297.864 276 312.5 276 327.136 264.359 339 250 339 235.641 339 224 327.136 224 312.5Z" fill="#D1D1D1" fill-rule="evenodd"/><path d="M1083 367.5C1083 352.864 1094.86 341 1109.5 341 1124.14 341 1136 352.864 1136 367.5 1136 382.136 1124.14 394 1109.5 394 1094.86 394 1083 382.136 1083 367.5Z" fill="#D1D1D1" fill-rule="evenodd"/><path d="M643 228.5C643 213.864 654.864 202 669.5 202 684.136 202 696 213.864 696 228.5 696 243.136 684.136 255 669.5 255 654.864 255 643 243.136 643 228.5Z" fill="#D1D1D1" fill-rule="evenodd"/><path d="M614 606C614 591.641 625.641 580 640 580 654.359 580 666 591.641 666 606 666 620.359 654.359 632 640 632 625.641 632 614 620.359 614 606Z" fill="#D1D1D1" fill-rule="evenodd"/><path d="M42 75.5C42 60.8645 53.8645 49 68.5 49 83.1355 49 95 60.8645 95 75.5 95 90.1355 83.1355 102 68.5 102 53.8645 102 42 90.1355 42 75.5Z" fill="#D1D1D1" fill-rule="evenodd"/><path d="M375 59.5C375 44.8645 386.641 33 401 33 415.359 33 427 44.8645 427 59.5 427 74.1355 415.359 86 401 86 386.641 86 375 74.1355 375 59.5Z" fill="#D1D1D1" fill-rule="evenodd"/><path d="M919 598.5C919 583.864 930.864 572 945.5 572 960.136 572 972 583.864 972 598.5 972 613.136 960.136 625 945.5 625 930.864 625 919 613.136 919 598.5Z" fill="#D1D1D1" fill-rule="evenodd"/></g></svg>