<svg viewBox="400 220 510 290" xmlns="http://www.w3.org/2000/svg" xmlns:xlink="http://www.w3.org/1999/xlink" overflow="hidden"><g><rect x="0" y="0" width="1280" height="720" fill="#FFFFFF"/><path d="M455.932 469.281 469.601 308.218 823.011 251.072 809.342 412.135Z" fill="#E59EDD" fill-rule="evenodd"/><path d="M463.5 309C463.5 305.962 465.962 303.5 469 303.5 472.038 303.5 474.5 305.962 474.5 309 474.5 312.038 472.038 314.5 469 314.5 465.962 314.5 463.5 312.038 463.5 309Z" stroke="#042433" stroke-width="1.33333" stroke-miterlimit="8" fill="#FFFFFF" fill-rule="evenodd"/><path d="M450.5 468.5C450.5 465.739 452.962 463.5 456 463.5 459.038 463.5 461.5 465.739 461.5 468.5 461.5 471.261 459.038 473.5 456 473.5 452.962 473.5 450.5 471.261 450.5 468.5Z" stroke="#042433" stroke-width="1.33333" stroke-miterlimit="8" fill="#FFFFFF" fill-rule="evenodd"/><path d="M819.5 252.5C819.5 249.739 821.739 247.5 824.5 247.5 827.261 247.5 829.5 249.739 829.5 252.5 829.5 255.261 827.261 257.5 824.5 257.5 821.739 257.5 819.5 255.261 819.5 252.5Z" stroke="#042433" stroke-width="1.33333" stroke-miterlimit="8" fill="#FFFFFF" fill-rule="evenodd"/><path d="M805.5 412C805.5 408.962 807.963 406.5 811 406.5 814.038 406.5 816.5 408.962 816.5 412 816.5 415.038 814.038 417.5 811 417.5 807.963 417.5 805.5 415.038 805.5 412Z" stroke="#042433" stroke-width="1.33333" stroke-miterlimit="8" fill="#FFFFFF" fill-rule="evenodd"/><path d="M0.161097-0.986938 337.634 54.0986 337.312 56.0725-0.161097 0.986938ZM336.801 50.9228 344.052 56.1594 335.512 58.8183Z" transform="matrix(1 0 0 -1 475 307.159)"/><path d="M0.159802-0.987149 337.203 53.5741 336.884 55.5484-0.159802 0.987149ZM336.367 50.3998 343.625 55.6268 335.089 58.2969Z" transform="matrix(1 0 0 -1 461 467.627)"/><path d="M0 0 12.495 148.959" stroke="#000000" stroke-width="2" stroke-miterlimit="8" stroke-dasharray="8 6" fill="none" fill-rule="evenodd" transform="matrix(-1 0 0 1 467.495 314)"/><path d="M0 0 12.495 148.959" stroke="#000000" stroke-width="2" stroke-miterlimit="8" stroke-dasharray="8 6" fill="none" fill-rule="evenodd" transform="matrix(-1 0 0 1 822.495 258)"/><text font-family="Open Sans,Open Sans_MSFontService,sans-serif" font-weight="400" font-size="24" transform="translate(412.141 306)">dog</text><text font-family="Open Sans,Open Sans_MSFontService,sans-serif" font-weight="400" font-size="24" transform="translate(835.714 246)">puppy</text><text font-family="Open Sans,Open Sans_MSFontService,sans-serif" font-weight="400" font-size="24" transform="translate(403.986 482)">cat</text><text font-family="Open Sans,Open Sans_MSFontService,sans-serif" font-weight="400" font-size="24" transform="translate(821.082 434)">kitten</text></g></svg>